<mxfile host="app.diagrams.net" agent="Mozilla/5.0 (Windows NT 10.0; Win64; x64) AppleWebKit/537.36 (KHTML, like Gecko) Chrome/135.0.0.0 Safari/537.36" version="26.2.12">
  <diagram name="第 1 页" id="JMAQ9yRk1ovRFRKds69D">
    <mxGraphModel dx="1428" dy="777" grid="1" gridSize="10" guides="1" tooltips="1" connect="1" arrows="1" fold="1" page="1" pageScale="1" pageWidth="827" pageHeight="1169" math="0" shadow="0">
      <root>
        <mxCell id="0" />
        <mxCell id="1" parent="0" />
        <mxCell id="JhaduMh65VZzkFT1SZ0F-2" style="edgeStyle=orthogonalEdgeStyle;rounded=0;orthogonalLoop=1;jettySize=auto;html=1;exitX=0.5;exitY=1;exitDx=0;exitDy=0;" edge="1" parent="1" source="JhaduMh65VZzkFT1SZ0F-1">
          <mxGeometry relative="1" as="geometry">
            <mxPoint x="414" y="250" as="targetPoint" />
          </mxGeometry>
        </mxCell>
        <mxCell id="JhaduMh65VZzkFT1SZ0F-1" value="用户输入模型列表（后面敲定）" style="rounded=0;whiteSpace=wrap;html=1;" vertex="1" parent="1">
          <mxGeometry x="354" y="90" width="120" height="60" as="geometry" />
        </mxCell>
        <mxCell id="JhaduMh65VZzkFT1SZ0F-5" style="edgeStyle=orthogonalEdgeStyle;rounded=0;orthogonalLoop=1;jettySize=auto;html=1;exitX=0.5;exitY=1;exitDx=0;exitDy=0;" edge="1" parent="1" source="JhaduMh65VZzkFT1SZ0F-3">
          <mxGeometry relative="1" as="geometry">
            <mxPoint x="414" y="380" as="targetPoint" />
          </mxGeometry>
        </mxCell>
        <mxCell id="JhaduMh65VZzkFT1SZ0F-7" value="发送消息" style="edgeLabel;html=1;align=center;verticalAlign=middle;resizable=0;points=[];" vertex="1" connectable="0" parent="JhaduMh65VZzkFT1SZ0F-5">
          <mxGeometry x="-0.149" y="2" relative="1" as="geometry">
            <mxPoint as="offset" />
          </mxGeometry>
        </mxCell>
        <mxCell id="JhaduMh65VZzkFT1SZ0F-3" value="判断是否存在与B系统（在想用Python还是Unity写）" style="rounded=0;whiteSpace=wrap;html=1;" vertex="1" parent="1">
          <mxGeometry x="354" y="250" width="120" height="60" as="geometry" />
        </mxCell>
        <mxCell id="JhaduMh65VZzkFT1SZ0F-8" style="edgeStyle=orthogonalEdgeStyle;rounded=0;orthogonalLoop=1;jettySize=auto;html=1;exitX=0.5;exitY=1;exitDx=0;exitDy=0;" edge="1" parent="1" source="JhaduMh65VZzkFT1SZ0F-6">
          <mxGeometry relative="1" as="geometry">
            <mxPoint x="414" y="470" as="targetPoint" />
          </mxGeometry>
        </mxCell>
        <mxCell id="JhaduMh65VZzkFT1SZ0F-6" value="智搜模型开始搜索模型链接" style="rounded=0;whiteSpace=wrap;html=1;" vertex="1" parent="1">
          <mxGeometry x="354" y="380" width="120" height="60" as="geometry" />
        </mxCell>
        <mxCell id="JhaduMh65VZzkFT1SZ0F-11" style="edgeStyle=orthogonalEdgeStyle;rounded=0;orthogonalLoop=1;jettySize=auto;html=1;exitX=0.5;exitY=1;exitDx=0;exitDy=0;entryX=0.5;entryY=0;entryDx=0;entryDy=0;" edge="1" parent="1" source="JhaduMh65VZzkFT1SZ0F-9" target="JhaduMh65VZzkFT1SZ0F-10">
          <mxGeometry relative="1" as="geometry" />
        </mxCell>
        <mxCell id="JhaduMh65VZzkFT1SZ0F-9" value="人工审核模型链接并进行下载并将模型名进行重命名" style="rounded=0;whiteSpace=wrap;html=1;" vertex="1" parent="1">
          <mxGeometry x="354" y="470" width="120" height="60" as="geometry" />
        </mxCell>
        <mxCell id="JhaduMh65VZzkFT1SZ0F-13" value="" style="edgeStyle=orthogonalEdgeStyle;rounded=0;orthogonalLoop=1;jettySize=auto;html=1;" edge="1" parent="1" source="JhaduMh65VZzkFT1SZ0F-10" target="JhaduMh65VZzkFT1SZ0F-12">
          <mxGeometry relative="1" as="geometry" />
        </mxCell>
        <mxCell id="JhaduMh65VZzkFT1SZ0F-10" value="进行模型贴图判断" style="rounded=0;whiteSpace=wrap;html=1;" vertex="1" parent="1">
          <mxGeometry x="354" y="580" width="120" height="60" as="geometry" />
        </mxCell>
        <mxCell id="JhaduMh65VZzkFT1SZ0F-15" value="" style="edgeStyle=orthogonalEdgeStyle;rounded=0;orthogonalLoop=1;jettySize=auto;html=1;" edge="1" parent="1" source="JhaduMh65VZzkFT1SZ0F-12" target="JhaduMh65VZzkFT1SZ0F-14">
          <mxGeometry relative="1" as="geometry" />
        </mxCell>
        <mxCell id="JhaduMh65VZzkFT1SZ0F-12" value="生成判断好的模型" style="whiteSpace=wrap;html=1;rounded=0;" vertex="1" parent="1">
          <mxGeometry x="354" y="720" width="120" height="60" as="geometry" />
        </mxCell>
        <mxCell id="JhaduMh65VZzkFT1SZ0F-17" value="" style="edgeStyle=orthogonalEdgeStyle;rounded=0;orthogonalLoop=1;jettySize=auto;html=1;" edge="1" parent="1" source="JhaduMh65VZzkFT1SZ0F-14" target="JhaduMh65VZzkFT1SZ0F-16">
          <mxGeometry relative="1" as="geometry" />
        </mxCell>
        <mxCell id="JhaduMh65VZzkFT1SZ0F-14" value="将后下载的模型放到指定位置并将用户输入的模型传入到Unity中（人工还是自动，自动费劲，需要将所有数据都进行传输）" style="whiteSpace=wrap;html=1;rounded=0;" vertex="1" parent="1">
          <mxGeometry x="346" y="800" width="136" height="90" as="geometry" />
        </mxCell>
        <mxCell id="JhaduMh65VZzkFT1SZ0F-19" value="" style="edgeStyle=orthogonalEdgeStyle;rounded=0;orthogonalLoop=1;jettySize=auto;html=1;" edge="1" parent="1" source="JhaduMh65VZzkFT1SZ0F-16" target="JhaduMh65VZzkFT1SZ0F-18">
          <mxGeometry relative="1" as="geometry" />
        </mxCell>
        <mxCell id="JhaduMh65VZzkFT1SZ0F-16" value="Builder编译器端做处理（用户输入的表，已找到的模型）" style="whiteSpace=wrap;html=1;rounded=0;" vertex="1" parent="1">
          <mxGeometry x="354" y="930" width="120" height="60" as="geometry" />
        </mxCell>
        <mxCell id="JhaduMh65VZzkFT1SZ0F-21" value="" style="edgeStyle=orthogonalEdgeStyle;rounded=0;orthogonalLoop=1;jettySize=auto;html=1;" edge="1" parent="1" source="JhaduMh65VZzkFT1SZ0F-18" target="JhaduMh65VZzkFT1SZ0F-20">
          <mxGeometry relative="1" as="geometry" />
        </mxCell>
        <mxCell id="JhaduMh65VZzkFT1SZ0F-18" value="当前已有的模型根据配置表显示功能（需研究一下如何自动化问题的关键点为现在有的数据是用xml手动调的&lt;div&gt;）&lt;/div&gt;" style="whiteSpace=wrap;html=1;rounded=0;" vertex="1" parent="1">
          <mxGeometry x="223.5" y="1040" width="141" height="90" as="geometry" />
        </mxCell>
        <mxCell id="JhaduMh65VZzkFT1SZ0F-23" value="" style="edgeStyle=orthogonalEdgeStyle;rounded=0;orthogonalLoop=1;jettySize=auto;html=1;" edge="1" parent="1" source="JhaduMh65VZzkFT1SZ0F-20" target="JhaduMh65VZzkFT1SZ0F-22">
          <mxGeometry relative="1" as="geometry" />
        </mxCell>
        <mxCell id="JhaduMh65VZzkFT1SZ0F-24" value="如果这种方法不行" style="edgeLabel;html=1;align=center;verticalAlign=middle;resizable=0;points=[];" vertex="1" connectable="0" parent="JhaduMh65VZzkFT1SZ0F-23">
          <mxGeometry x="-0.0108" relative="1" as="geometry">
            <mxPoint y="1" as="offset" />
          </mxGeometry>
        </mxCell>
        <mxCell id="JhaduMh65VZzkFT1SZ0F-26" value="" style="edgeStyle=orthogonalEdgeStyle;rounded=0;orthogonalLoop=1;jettySize=auto;html=1;" edge="1" parent="1" source="JhaduMh65VZzkFT1SZ0F-20" target="JhaduMh65VZzkFT1SZ0F-25">
          <mxGeometry relative="1" as="geometry" />
        </mxCell>
        <mxCell id="JhaduMh65VZzkFT1SZ0F-20" value="没有的模型需探索一下使用当前自动导入模型功能（看了一下在工程中的效果觉得实现的难度为最低）" style="whiteSpace=wrap;html=1;rounded=0;" vertex="1" parent="1">
          <mxGeometry x="221" y="1169" width="146" height="101" as="geometry" />
        </mxCell>
        <mxCell id="JhaduMh65VZzkFT1SZ0F-27" style="edgeStyle=orthogonalEdgeStyle;rounded=0;orthogonalLoop=1;jettySize=auto;html=1;exitX=0.5;exitY=1;exitDx=0;exitDy=0;entryX=1;entryY=0.5;entryDx=0;entryDy=0;" edge="1" parent="1" source="JhaduMh65VZzkFT1SZ0F-22" target="JhaduMh65VZzkFT1SZ0F-25">
          <mxGeometry relative="1" as="geometry" />
        </mxCell>
        <mxCell id="JhaduMh65VZzkFT1SZ0F-22" value="研究脚本生成预制体-&amp;gt;挂载脚本-&amp;gt;打成Bundle" style="whiteSpace=wrap;html=1;rounded=0;" vertex="1" parent="1">
          <mxGeometry x="510" y="1189.5" width="120" height="60" as="geometry" />
        </mxCell>
        <mxCell id="JhaduMh65VZzkFT1SZ0F-29" value="" style="edgeStyle=orthogonalEdgeStyle;rounded=0;orthogonalLoop=1;jettySize=auto;html=1;" edge="1" parent="1" source="JhaduMh65VZzkFT1SZ0F-25" target="JhaduMh65VZzkFT1SZ0F-28">
          <mxGeometry relative="1" as="geometry" />
        </mxCell>
        <mxCell id="JhaduMh65VZzkFT1SZ0F-25" value="将新增的模型配置数据关键点还是自动化的转换数据" style="whiteSpace=wrap;html=1;rounded=0;" vertex="1" parent="1">
          <mxGeometry x="234" y="1370.5" width="120" height="60" as="geometry" />
        </mxCell>
        <mxCell id="JhaduMh65VZzkFT1SZ0F-28" value="自动打包（需看一下如何拆分Builder还是其他的东西）" style="whiteSpace=wrap;html=1;rounded=0;" vertex="1" parent="1">
          <mxGeometry x="234" y="1510.5" width="120" height="60" as="geometry" />
        </mxCell>
      </root>
    </mxGraphModel>
  </diagram>
</mxfile>
